<svg xmlns="http://www.w3.org/2000/svg" viewBox="0 0 1024 1024">
  <defs>
    <linearGradient id="background" x1="0" y1="0" x2="1" y2="1">
      <stop offset="0" stop-color="#f0c77d" />
      <stop offset="1" stop-color="#d9a957" />
    </linearGradient>
  </defs>
  <rect
    x="56"
    y="56"
    width="912"
    height="912"
    rx="224"
    fill="#0f1319"
    opacity="0.35"
  />
  <rect
    x="48"
    y="40"
    width="912"
    height="912"
    rx="224"
    fill="url(#background)"
  />
  <g
    transform="translate(224 208) scale(24)"
    fill="none"
    stroke="#17130c"
    stroke-width="2"
    stroke-linecap="round"
    stroke-linejoin="round"
  >
    <path d="M12.83 2.18a2 2 0 0 0-1.66 0L2.6 6.08a1 1 0 0 0 0 1.83l8.58 3.91a2 2 0 0 0 1.66 0l8.58-3.9a1 1 0 0 0 0-1.83z" />
    <path d="M2 12a1 1 0 0 0 .58.91l8.6 3.91a2 2 0 0 0 1.65 0l8.58-3.9A1 1 0 0 0 22 12" />
    <path d="M2 17a1 1 0 0 0 .58.91l8.6 3.91a2 2 0 0 0 1.65 0l8.58-3.9A1 1 0 0 0 22 17" />
  </g>
</svg>
